<svg id="Слой_1" data-name="Слой 1" xmlns="http://www.w3.org/2000/svg" viewBox="0 0 100 100"><defs><style>.cls-1{fill:#008593;}.cls-2{fill:#0097a7;}.cls-3{fill:#007480;}.cls-4{fill:#6b6b6b;}.cls-5{fill:#005059;}.cls-6{fill:#fff;}</style></defs><path class="cls-1" d="M26.21,36.4a19.66,19.66,0,0,1,5.54-2.19,23.28,23.28,0,0,1,6.72-.54,20.59,20.59,0,0,1,8.91,2.5c.26.15.54.28.81.41a10.5,10.5,0,0,1,2.75,2.24,3.38,3.38,0,0,1,0,4.7,8.57,8.57,0,0,1-3.19,2.35,21.89,21.89,0,0,1-6,1.7,24.94,24.94,0,0,1-3.12.28,5.44,5.44,0,0,0-.58,0,11.5,11.5,0,0,0-1.66,0c-1-.08-2-.11-3.06-.23a24.63,24.63,0,0,1-3.95-.77A16.87,16.87,0,0,1,25.1,45a6,6,0,0,1-2.55-2.74,3.69,3.69,0,0,1,1.22-4.16A12.49,12.49,0,0,1,26.21,36.4Z"/><path class="cls-2" d="M51.69,39.39a6.12,6.12,0,0,1,2.17,4.92,2.16,2.16,0,0,0-.07.51,3.91,3.91,0,0,1-1.5,2.59,14.88,14.88,0,0,1-5.92,3,31.14,31.14,0,0,1-7.18,1.18c-1,.06-2.07.08-3.11,0a28.42,28.42,0,0,1-11.42-2.49,10,10,0,0,1-3.74-2.91,3.61,3.61,0,0,1-.62-1.84,9.29,9.29,0,0,1,.45-2.54,6.65,6.65,0,0,1,1.64-2.39c.22.11.1.25.06.38a4.54,4.54,0,0,0-.19,2.22,4.22,4.22,0,0,0,1.33,2.29A10.17,10.17,0,0,0,27,46.47a23.57,23.57,0,0,0,4.45,1.32c1,.18,2.07.27,3.1.4a23.65,23.65,0,0,0,2.52.14c.86,0,1.73-.06,2.59-.11a26,26,0,0,0,3.86-.54,16.16,16.16,0,0,0,6.43-2.58A4.54,4.54,0,0,0,52,42a4.1,4.1,0,0,0-.38-2.27C51.57,39.64,51.46,39.49,51.69,39.39Z"/><path class="cls-3" d="M20.3,44.43a5.49,5.49,0,0,0,1.06,2.1,10.63,10.63,0,0,0,3.82,2.71,26.3,26.3,0,0,0,7.81,2,33.66,33.66,0,0,0,5.5.23,29.07,29.07,0,0,0,10-2,10.66,10.66,0,0,0,4.35-3,3.83,3.83,0,0,0,.83-1.72c.23.1.08.24.08.37a6.11,6.11,0,0,1-2.12,4.27,14.48,14.48,0,0,1-6,3.31,28.78,28.78,0,0,1-8.71,1.2,27.07,27.07,0,0,1-9.73-1.69A13.21,13.21,0,0,1,22,48.94,6.22,6.22,0,0,1,20.3,44.43Z"/><path class="cls-3" d="M51.69,39.39c0,.11.09.23.13.35a4,4,0,0,1-.09,3.66,8.32,8.32,0,0,1-3.95,3.12,22.77,22.77,0,0,1-6.64,1.71,33.36,33.36,0,0,1-4.79.25c-1.05,0-2.09-.14-3.13-.26a20.84,20.84,0,0,1-3.28-.59A16.2,16.2,0,0,1,24.06,45c-2-1.51-2.5-3.3-1.73-5.34l.06-.18a8,8,0,0,1,3.41-2.92l.41-.18-.79.58a11.17,11.17,0,0,0-2,1.83,3.47,3.47,0,0,0,.34,4.92A10.27,10.27,0,0,0,27,45.85a19.59,19.59,0,0,0,3.05,1,26.64,26.64,0,0,0,3.5.61c.93.09,1.87.18,2.81.2a12.56,12.56,0,0,0,1.84,0A27.28,27.28,0,0,0,44.12,47a16.76,16.76,0,0,0,4.47-1.7,6.62,6.62,0,0,0,2.7-2.53,3.22,3.22,0,0,0-.41-3.7A9.75,9.75,0,0,0,48.63,37a1.36,1.36,0,0,1-.44-.38,8.49,8.49,0,0,1,3.12,2.35Z"/><path class="cls-4" d="M53.8,45.16c0-.12,0-.25-.08-.37a.84.84,0,0,1,.14-.48A2,2,0,0,1,53.8,45.16Z"/><path class="cls-2" d="M36.87,43.88a22.07,22.07,0,0,1,6,.64,4.06,4.06,0,0,1,1.43.6c.59.41.61.77,0,1.2a5.5,5.5,0,0,1-2.1.75,21.77,21.77,0,0,1-4.2.45,26.87,26.87,0,0,1-5.45-.37A8.21,8.21,0,0,1,30,46.38c-.78-.44-.79-1,0-1.42a10.15,10.15,0,0,1,3.44-.89A20.71,20.71,0,0,1,36.87,43.88Z"/><path class="cls-3" d="M36.73,44.11a28.12,28.12,0,0,1,5.42.49,5.85,5.85,0,0,1,1.63.58c.58.33.57.8,0,1.11a9.52,9.52,0,0,1-3.24.8,26.47,26.47,0,0,1-3.88.18,20.66,20.66,0,0,1-5.5-.73,2.37,2.37,0,0,1-.95-.52.43.43,0,0,1,0-.71,3,3,0,0,1,1.22-.58,17.87,17.87,0,0,1,3.81-.55C35.81,44.15,36.42,44.09,36.73,44.11Z"/><path class="cls-2" d="M39.18,44.94c0-.17,0-.43.34-.42s.31.26.32.45a.26.26,0,0,1,0,.15c0,.13-.09.3-.32.29s-.27-.16-.3-.31A.41.41,0,0,1,39.18,44.94Z"/><path class="cls-2" d="M36.76,45.69c0-.19,0-.43.32-.44s.34.24.34.43,0,.44-.31.45S36.81,45.86,36.76,45.69Z"/><path class="cls-2" d="M35,46.45c0,.18,0,.44-.34.43s-.31-.26-.33-.45a.49.49,0,0,1,0-.12c.06-.14.08-.33.34-.32s.27.18.31.33A.53.53,0,0,1,35,46.45Z"/><path class="cls-2" d="M35,44.93c0,.19,0,.45-.34.45s-.34-.24-.34-.43,0-.44.33-.45S35,44.75,35,44.93Z"/><path class="cls-2" d="M32.18,45.69c0-.19,0-.45.32-.45s.33.26.34.46a.52.52,0,0,1,0,.18c-.05.12-.09.25-.29.25a.3.3,0,0,1-.31-.26A1.13,1.13,0,0,1,32.18,45.69Z"/><path class="cls-2" d="M39.86,46.44a1,1,0,0,1,0,.18c0,.13-.1.28-.3.28s-.28-.15-.31-.29a.38.38,0,0,1,0-.18c0-.17,0-.41.32-.42S39.82,46.26,39.86,46.44Z"/><path class="cls-2" d="M42,45.73c0,.17,0,.43-.33.42s-.31-.25-.32-.44a.17.17,0,0,1,0-.12c0-.15.06-.32.31-.32s.29.17.32.32A.57.57,0,0,1,42,45.73Z"/><path class="cls-5" d="M68.27,100a46.85,46.85,0,0,1-18-3.38c-4.47-1.9-7.58-4.05-9.78-6.75A16.5,16.5,0,0,1,39,87.76v0a13.08,13.08,0,0,1-1.84-7.33c0-.47.09-.87.12-1.27a13.67,13.67,0,0,1,.77-4,15.46,15.46,0,0,1,1.79-3.34,13.73,13.73,0,0,1,1.3-1.57,16,16,0,0,1,6.52-6c.17-.1.38-.19.59-.29l.14-.06a35.6,35.6,0,0,1,10.31-4.38,41.53,41.53,0,0,1,9.69-1.19c.94,0,1.88,0,2.8.11a36,36,0,0,1,16.61,5c.34.21.7.4,1,.59l.37.19a16.59,16.59,0,0,1,6,4.86l.64.84A13.43,13.43,0,0,1,100,80.07v.29c0,.19,0,.42,0,.65H99.9v0H100a13.33,13.33,0,0,1-1.2,5.53,16.15,16.15,0,0,1-3,4.33A26.74,26.74,0,0,1,84.4,97.61,49.63,49.63,0,0,1,68.94,100Z"/><path class="cls-3" d="M99.05,80.36c0,.2,0,.41,0,.61,0,0,0,0,0,0a12.55,12.55,0,0,1-1.11,5.14,15.51,15.51,0,0,1-2.86,4.1,25.94,25.94,0,0,1-11,6.46,48.62,48.62,0,0,1-15.82,2.34,45.9,45.9,0,0,1-17.69-3.3,23.63,23.63,0,0,1-9.42-6.48,16.08,16.08,0,0,1-1.4-2h0a12.09,12.09,0,0,1-1.72-6.81,19.21,19.21,0,0,1,.82-5,14.64,14.64,0,0,1,1.69-3.14,12.3,12.3,0,0,1,1.28-1.54,15.1,15.1,0,0,1,6.21-5.71c.23-.13.49-.23.73-.35a35.2,35.2,0,0,1,10.09-4.3,39.59,39.59,0,0,1,12.2-1.05,35.34,35.34,0,0,1,16.18,4.89c.47.29,1,.55,1.47.81a15.5,15.5,0,0,1,5.68,4.6l.68.89A12.47,12.47,0,0,1,99,80s0,0,0,0v.16s0,0,0,0S99.05,80.32,99.05,80.36Z"/><path class="cls-5" d="M99.05,80.36s0-.07,0-.11,0,0,0,0v-.16s0,0,0,0S99.05,80.25,99.05,80.36Z"/><path class="cls-3" d="M99.05,80.36s0-.07,0-.11,0,0,0,0v-.16s0,0,0,0S99.05,80.25,99.05,80.36Z"/><path class="cls-1" d="M48.79,64.75a34.78,34.78,0,0,1,10.07-4.29A39.69,39.69,0,0,1,71.07,59.4a35.19,35.19,0,0,1,16.18,4.9c.47.29,1,.54,1.47.81a19,19,0,0,1,5,4.36c2.29,3.06,2.35,6.17,0,9.21A16,16,0,0,1,88,83.28a37.08,37.08,0,0,1-10.82,3.31,38.34,38.34,0,0,1-5.67.55c-.36,0-.71.06-1.06.1a19,19,0,0,0-3,0c-1.85-.15-3.7-.21-5.54-.45a39.72,39.72,0,0,1-7.19-1.5,29.45,29.45,0,0,1-7.89-3.65c-2.06-1.45-3.87-3.11-4.62-5.34-1-3-.17-5.75,2.2-8.15A22.71,22.71,0,0,1,48.79,64.75Z"/><path class="cls-2" d="M68.16,79.38a37.66,37.66,0,0,1,10.89,1.24,7.69,7.69,0,0,1,2.6,1.18c1.07.81,1.09,1.51,0,2.35a9.55,9.55,0,0,1-3.82,1.47,36.64,36.64,0,0,1-7.62.88,45.64,45.64,0,0,1-9.91-.71,14,14,0,0,1-4.57-1.52c-1.43-.87-1.44-1.94,0-2.78a17.41,17.41,0,0,1,6.26-1.74A34.89,34.89,0,0,1,68.16,79.38Z"/><path class="cls-5" d="M67.91,79.83a46.78,46.78,0,0,1,9.85,1,9.9,9.9,0,0,1,2.95,1.12c1.07.65,1,1.56-.07,2.17a15.93,15.93,0,0,1-5.89,1.57,44.84,44.84,0,0,1-7,.36,34.85,34.85,0,0,1-10-1.43,4.73,4.73,0,0,1-1.73-1,.86.86,0,0,1,0-1.39,5.1,5.1,0,0,1,2.2-1.14A29.29,29.29,0,0,1,65.13,80C66.24,79.91,67.34,79.78,67.91,79.83Z"/><path class="cls-6" d="M72.35,81.46c.08-.34,0-.85.62-.83s.56.51.59.88a.7.7,0,0,1,0,.29c-.1.27-.17.59-.59.57s-.49-.32-.55-.6C72.37,81.67,72.37,81.57,72.35,81.46Z"/><path class="cls-6" d="M68,82.92c.06-.38.07-.85.59-.86s.61.48.62.85,0,.86-.58.88S68.05,83.26,68,82.92Z"/><path class="cls-6" d="M64.73,84.41c-.07.35,0,.85-.62.84s-.56-.51-.59-.88a.49.49,0,0,1,0-.24c.09-.28.14-.63.6-.62s.5.35.56.65A1.56,1.56,0,0,1,64.73,84.41Z"/><path class="cls-6" d="M64.78,81.44c-.08.37,0,.87-.61.88s-.62-.48-.62-.84,0-.86.59-.88S64.69,81.09,64.78,81.44Z"/><path class="cls-6" d="M59.63,82.91c.07-.36,0-.87.6-.87s.59.51.61.91a.83.83,0,0,1-.05.35c-.09.22-.18.48-.53.48s-.49-.26-.57-.51S59.65,83,59.63,82.91Z"/><path class="cls-6" d="M73.59,84.38a1.44,1.44,0,0,1,0,.37c-.08.25-.18.54-.54.54s-.51-.29-.58-.57a1.34,1.34,0,0,1,0-.35c.06-.34,0-.81.58-.82S73.52,84,73.59,84.38Z"/><path class="cls-6" d="M77.43,83c-.05.34,0,.84-.6.84s-.56-.49-.59-.87a.58.58,0,0,1,0-.23c.07-.29.12-.64.58-.63s.51.33.57.63C77.42,82.81,77.42,82.89,77.43,83Z"/><path class="cls-2" d="M99,80.25s0,0,0,0v-.16s0,0,0,0a12.47,12.47,0,0,0-4-9.44c-.42.21-.21.48-.1.73a8.57,8.57,0,0,1,.68,4.44,8.91,8.91,0,0,1-3.75,6,28.29,28.29,0,0,1-11.68,5,45.78,45.78,0,0,1-7,1.05c-1.58.09-3.14.25-4.73.22a38.89,38.89,0,0,1-4.56-.28c-1.88-.24-3.76-.42-5.63-.78a40.31,40.31,0,0,1-8.08-2.58A18.48,18.48,0,0,1,44,80.38a8.38,8.38,0,0,1-2.42-4.48A9.46,9.46,0,0,1,42,71.55c.06-.24.28-.53-.13-.74a12.3,12.3,0,0,0-1.28,1.54h0a14.81,14.81,0,0,0-1.69,3.13,18.85,18.85,0,0,0-.81,5,7.34,7.34,0,0,0,1.12,3.6c.23.32.46.63.71.93h0A19.4,19.4,0,0,0,46,89.75c6.35,3.3,13.39,4.58,20.75,4.87a56.32,56.32,0,0,0,5.66-.07,53,53,0,0,0,13-2.32c4.1-1.32,7.87-3.08,10.76-5.94a8.26,8.26,0,0,0,2.67-4.5s0-.08,0-.12.07-.26.11-.39a2.56,2.56,0,0,0,0-.27s0,0,0,0c0-.2,0-.41,0-.61C99.05,80.32,99,80.29,99,80.25Z"/><path class="cls-3" d="M99,80s0,0,0,0c-.08.32-.31,1.32-.33,1.42A10.48,10.48,0,0,1,98,83.36a1.58,1.58,0,0,1-.13.26,1.14,1.14,0,0,0-.09.16,8.88,8.88,0,0,1-.5.75,19.43,19.43,0,0,1-7.9,5.86,49.23,49.23,0,0,1-18.26,3.94,57.78,57.78,0,0,1-10-.45,44.75,44.75,0,0,1-14.18-4A19.62,19.62,0,0,1,40,84.58l-.06-.09h0a11.18,11.18,0,0,1-1.86-4,12.09,12.09,0,0,0,1.71,6.81h0a16.08,16.08,0,0,0,1.4,2,23.63,23.63,0,0,0,9.42,6.48,45.9,45.9,0,0,0,17.69,3.3A48.62,48.62,0,0,0,84.1,96.71a25.94,25.94,0,0,0,11-6.46,15.51,15.51,0,0,0,2.86-4.1A12.55,12.55,0,0,0,99.05,81s0,0,0,0c0-.2,0-.41,0-.61S99,80.14,99,80Z"/><path class="cls-5" d="M95.08,70.59c.09.23.17.45.25.68.87,2.41,1.13,4.8-.17,7.17C93.65,81.21,91,83.06,88,84.54a38.72,38.72,0,0,1-12.06,3.35,55.25,55.25,0,0,1-8.72.49c-1.9-.06-3.79-.27-5.68-.5a38.41,38.41,0,0,1-6-1.16,28.76,28.76,0,0,1-10.68-5.11c-3.57-2.94-4.54-6.45-3.14-10.45l.11-.35a15,15,0,0,1,6.2-5.71c.24-.13.49-.23.74-.35l-1.44,1.13a20.78,20.78,0,0,0-3.68,3.57,7.17,7.17,0,0,0,.61,9.64,18.47,18.47,0,0,0,5.94,4.14,32.88,32.88,0,0,0,5.52,2,43.63,43.63,0,0,0,6.37,1.19c1.7.18,3.39.36,5.1.4a22,22,0,0,0,3.35,0A45.17,45.17,0,0,0,81.33,85.4a29.57,29.57,0,0,0,8.12-3.32,12.35,12.35,0,0,0,4.92-5,6.7,6.7,0,0,0-.54-7.25c-1.11-1.52-1.39-2.13-5.11-4.76A15.46,15.46,0,0,1,94.4,69.7C94.63,70,94.86,70.29,95.08,70.59Z"/></svg>