<svg id="Слой_1" data-name="Слой 1" xmlns="http://www.w3.org/2000/svg" viewBox="0 0 100 100"><defs><style>.cls-1{fill:#1f6568;}.cls-2{fill:none;}.cls-3{fill:#007480;}.cls-4{fill:#0097a7;}.cls-5{fill:#005059;}</style></defs><path class="cls-1" d="M11,24.33V24.1a1.09,1.09,0,0,1-.23-.14h0l-8-7.09"/><line class="cls-2" x1="49.12" y1="57.78" x2="48.51" y2="58.23"/><path class="cls-3" d="M89.67,49.38a1.78,1.78,0,0,0-.32-.52l0,0-.1-.09,0,0-.12-.09a4.24,4.24,0,0,0-1-.41l-22-5.28-4.28,3.2,0,0v0h0s0,.1-.06.17,0,0,0,0l0,0,0,.05a.09.09,0,0,1,0,0,.8.8,0,0,1-.36.34h0l-.06,0-5,3.77a.35.35,0,0,0-.11.22h0v.21a.93.93,0,0,0,0,.13v.06s0,.08,0,.1l0,.05a1.63,1.63,0,0,0,.11.17,2.14,2.14,0,0,0,.69.46l.29.15h0l.17.09,0,0a11.45,11.45,0,0,0,1.7,1c3,1.08,6,2.1,9,3.15l7.49,2.62h0l.08,0,.35.11h0a3.5,3.5,0,0,0,.45.07h0A3.56,3.56,0,0,0,78.54,59h0a5,5,0,0,0,1.1-.71c1-.79,1.92-1.56,2.89-2.34l1.35-1.11c.28-.24.53-.49,1-.39a6.49,6.49,0,0,0,3.31-.28c.36-.12,1.11-.41,1.11-.41l.91.21c.05,0,.28-.13.28-.13a.58.58,0,0,0,.23-.26l.11-.19Z"/><polygon class="cls-3" points="84.74 48.48 81.95 50.71 69.99 47.48 72.71 45.47 84.74 48.48"/><path class="cls-4" d="M84.88,48.62,82.2,50.76c-.1.08-.18.17-.32.14l-.23-.06-1.12-.31-4-1.07L72.29,48.3c-.77-.21-1.56-.39-2.32-.62h0a.21.21,0,0,1,0-.37l2.66-2c.16-.12.35,0,.52,0l1.2.3,4,1,4.24,1.06c.75.19,1.52.35,2.27.57h0a.2.2,0,0,1-.1.38l-1.19-.3-2.89-.72-3.47-.87-3-.75-1-.25a3.59,3.59,0,0,1-.47-.12h0l.16,0-2.38,1.75-.34.26,0-.37,1.19.33,2.86.77,3.45.93,3,.81,1,.27a3.59,3.59,0,0,1,.47.12s0,0,0,0l-.2,0,2.45-2,.35-.28C84.8,48.18,85.08,48.46,84.88,48.62Z"/><line x1="66.59" y1="42.91" x2="66.13" y2="42.8"/><path class="cls-4" d="M90.83,53.41l-.11.19a.58.58,0,0,1-.23.26s-.23.15-.28.13L89,50.32c-.05-.15-.16-.47-.45-.55a.74.74,0,0,0-.65.25h0l-.59.53L86,51.72l-6.73,6a3.29,3.29,0,0,1-3.16.91l-.18,0a5.88,5.88,0,0,1-.78-.25l-.27-.1L58.09,52.54l-.64-.22L57,52.08a2.14,2.14,0,0,1-.69-.46,1.63,1.63,0,0,1-.11-.17l0-.05a1.32,1.32,0,0,1,0-.16.93.93,0,0,1,0-.13V50.9a.24.24,0,0,0,.05.14.34.34,0,0,0,.22.15h0c1.87.58,5.1,1.71,7.44,2.49l.46.15.22.08.29.09.37.12.23.07.1,0,1.94.61c1.46.47,2.91.95,4.36,1.46.9.31,1.79.62,2.69,1a5.77,5.77,0,0,0,1,.29,3.69,3.69,0,0,0,3.49-1l1.56-1.4,2-1.74.31-.28c.08-.1.08-.19,0-.23-6.74-1.9-14.73-4.11-21.54-6a.8.8,0,0,0,.36-.34.09.09,0,0,0,0,0l0-.05,0,0s0,0,0,0,0-.14.06-.17h0v0c3.3,1,19.15,5.3,21.09,5.84a1.13,1.13,0,0,0,1.07,0c.47-.38,2.36-2.08,3.38-2.84l0,0,.53-.44a1.2,1.2,0,0,1,1.74.75Z"/><path class="cls-4" d="M59.38,30h0l-3.57-2.83a.26.26,0,0,0-.35,0l-.36.41a.25.25,0,0,0,0,.35l3.25,3.17h0l1.78,1.25a.26.26,0,0,0,.33,0l.38-.42a.25.25,0,0,0,0-.34L59.39,30h0Z"/><path class="cls-4" d="M44.34,17.27l-.48.54L39.59,16h0l0-.06c.43.2,1.18-.12,1.76-.78a1.81,1.81,0,0,0,.56-1.84l0,0h0Z"/><path class="cls-4" d="M66.25,43l.49-.16c-.23-.76-.43-1.45-.62-2.11-1-3.4-1.57-5.45-4.56-8.09L42.64,15.9l-.34.39L61.21,33c2.88,2.54,3.42,4.42,4.41,7.84C65.81,41.49,66,42.18,66.25,43Z"/><path class="cls-4" d="M35.15,9.64c.65-.74,1.5-1.05,1.9-.69l0,0,.06,0,4.23,3.74h0c.4.35.2,1.24-.45,2s-1.5,1-1.9.69h0L34.8,11.69l0,0-.07,0C34.3,11.25,34.5,10.37,35.15,9.64Z"/><path class="cls-4" d="M67.71,44.21v-.07h0a.43.43,0,0,0,0,0l-1.57-4.7a.45.45,0,0,0-.54-.29l-.33.09a.44.44,0,0,0-.33.53l1,4.82a.29.29,0,0,0,0,.13h0l0,.1A.93.93,0,0,0,67,45c.44-.11.73-.42.69-.72h0A.41.41,0,0,0,67.71,44.21Z"/><line class="cls-2" x1="62.11" y1="36.16" x2="61.77" y2="36.42"/><path class="cls-1" d="M72.18,100c-.26,0-.54,0-.81,0s-.67-.09-1-.16h0l-.11,0-.18-.06-.51-.17L64,97.61,54.85,94.4l-5.42-1.87c-4-1.38-8.13-2.8-12.18-4.26a20.57,20.57,0,0,1-3.44-2c-.16-.08-.3-.14-.43-.22l-.58-.3-.32-.17a3.43,3.43,0,0,1-1.35-1,3.87,3.87,0,0,1-.27-.43.69.69,0,0,1-.12-.25,1,1,0,0,1-.08-.33v-.05a.85.85,0,0,1,0-.25l0-.18v-.51a1.63,1.63,0,0,1,.45-1.07l.15-.13L41,74l.08-.07h0l.13-.1a.66.66,0,0,0,.34-.31l.07-.11a.67.67,0,0,1,.07-.17l0-.09a1,1,0,0,1,.3-.56l.11-.1,6.93-5.19L47.73,61A1.81,1.81,0,0,1,48,59.53a21.75,21.75,0,0,0-7.17-11.08l-.91-.81-.21,0a1.51,1.51,0,0,1-.85-.27L35.41,45l-.11-.09v0h0L29,38.68a1.51,1.51,0,0,1-.45-1.11L19,29.19l-.23,0-8.28-3.49-.29-.18,0,0h0L.92,17.18l-.05-.05L.69,17A2.2,2.2,0,0,1,0,15.44a5.28,5.28,0,0,1,1.52-3.63,5.18,5.18,0,0,1,3.58-2,2.16,2.16,0,0,1,1.45.5l.09.08.09.06L16.11,19l.18.22,4.65,7.61v.14l9.59,8.46h.17a1.42,1.42,0,0,1,.92.33l6.94,5.47.05.12,0,0,2.91,3.1a1.45,1.45,0,0,1,.39,1.09l.88.78a24.81,24.81,0,0,1,8,12.46A1.81,1.81,0,0,1,52,59.84l2.32,7L94,76.35a9.68,9.68,0,0,1,2,.81h0a1.4,1.4,0,0,1,.17.09c.13.08.23.16.33.23l.08.07a3.2,3.2,0,0,1,.31.28l0,0,.07.07a3.11,3.11,0,0,1,.23.28l.08.11a2.13,2.13,0,0,1,.16.25,3.59,3.59,0,0,1,.31.62l0,.1L100,87.16l-.08.73-.21.39a2.27,2.27,0,0,1-.76.84,1.85,1.85,0,0,1-1.06.42l-.24-.05v0l-1.49-.34c-.46.18-1.38.54-1.91.71a14.89,14.89,0,0,1-4.74.8,10,10,0,0,1-2.22-.23l-.16,0c-.21,0-.38.13-.76.45L83.6,93.16l-.93.75c-1.57,1.26-3.14,2.52-4.7,3.81a10.43,10.43,0,0,1-2.35,1.51h0l0,0A7.91,7.91,0,0,1,72.18,100Z"/><path class="cls-1" d="M99.06,87.43l-.21.38a1.44,1.44,0,0,1-.45.5s-.45.28-.54.24l-1.79-.41s-1.45.58-2.14.8a12.69,12.69,0,0,1-6.43.56c-.88-.2-1.36.29-1.9.74L83,92.41c-1.88,1.51-3.77,3-5.63,4.55a10.15,10.15,0,0,1-2.12,1.39l0,0a7.15,7.15,0,0,1-3,.65c-.24,0-.49,0-.74,0s-.58-.08-.88-.14h0c-.22-.06-.44-.14-.67-.22l-.16-.05h0c-4.85-1.7-9.69-3.41-14.55-5.09-5.87-2-11.74-4-17.58-6.13a21.23,21.23,0,0,1-3.31-2l-.09,0a2.21,2.21,0,0,1-.34-.18c-.2-.09-.38-.18-.58-.29a4.2,4.2,0,0,1-1.35-.9l-.2-.31a.43.43,0,0,1,0-.12.5.5,0,0,1,0-.13v0a.5.5,0,0,1,0-.12l0-.26v-.41h0a.71.71,0,0,1,.21-.43l9.78-7.31.11-.11h0a1.41,1.41,0,0,0,.71-.65l.06-.1a.3.3,0,0,0,0-.1.36.36,0,0,0,0-.09l0-.06a2.42,2.42,0,0,0,.12-.33h0a.06.06,0,0,1,0,0l0,0,7.43-5.56-1.49-6.93a.84.84,0,0,1,.45-1c-1.49-4.78-3-8-7.64-12.11L40.12,46.5l0,0a.49.49,0,0,1-.65.07L36,44.17h0L29.64,38a.5.5,0,0,1,0-.69l0,0L19.33,28.16l-.15.17-8.29-3.49h0l-.06-.11c.85.38,2.29-.23,3.42-1.52s1.56-2.77,1.09-3.56l.11,0h0l4.66,7.61-.08.09,0,0,10.31,9.11a.5.5,0,0,1,.68,0l6.94,5.48h0L40.82,45a.49.49,0,0,1,0,.67l0,0L42.16,47c4.84,4.26,6.45,7.74,8,12.59a.84.84,0,0,1,.91.58l2.49,7.49,40.23,9.68a8.5,8.5,0,0,1,1.72.7l0,0a1.48,1.48,0,0,0,.13.08,2.07,2.07,0,0,1,.24.17l.09.06.2.2s0,0,0,0l.19.23a2.94,2.94,0,0,0,.17.26,3,3,0,0,1,.25.51Z"/><path class="cls-4" d="M96.81,79.59a3.58,3.58,0,0,0-.62-1l0-.06c-.06-.07-.13-.12-.19-.18l-.09-.07a2.07,2.07,0,0,0-.24-.17,7.71,7.71,0,0,0-1.88-.8L51.07,67l-8.31,6.23,0,0v0h0c0,.06-.06.19-.12.33a.14.14,0,0,1,0,.06l0,.09,0,.1-.06.1a1.63,1.63,0,0,1-.71.66h0l-.12.09L31.8,82.11a.67.67,0,0,0-.2.43h0V83l0,.25s0,.08,0,.12a1.06,1.06,0,0,0,0,.18l.06.11a3.45,3.45,0,0,0,.2.32,4,4,0,0,0,1.35.9l.57.3h0l.34.18.1,0a21.22,21.22,0,0,0,3.3,2c5.85,2.09,11.73,4.09,17.59,6.13l14.55,5.09h0l.16.05c.22.08.45.16.67.22h0c.29.06.59.11.88.14h0a7.06,7.06,0,0,0,3.73-.62l0,0A10,10,0,0,0,77.35,97c1.85-1.54,3.74-3,5.63-4.55l2.61-2.16c.56-.46,1-1,1.91-.75A12.68,12.68,0,0,0,93.93,89c.69-.23,2.15-.81,2.15-.81l1.78.42c.08,0,.54-.25.54-.25a1.44,1.44,0,0,0,.45-.5l.21-.39Z"/><polygon class="cls-5" points="87.23 77.85 81.79 82.18 58.55 75.89 63.84 71.99 87.23 77.85"/><path class="cls-3" d="M87.5,78.12l-5.21,4.15c-.19.16-.36.34-.63.28l-.43-.12L79,81.84l-7.7-2.08L63,77.5c-1.5-.4-3-.76-4.5-1.21l-.07,0a.39.39,0,0,1-.09-.71l5.17-3.82c.31-.23.68,0,1,0l2.33.58,7.73,1.94,8.24,2.06c1.47.37,3,.68,4.42,1.11h.06a.39.39,0,0,1-.21.75l-2.31-.58-5.6-1.4-6.75-1.69-5.83-1.46-1.94-.49a5.9,5.9,0,0,1-.92-.23h0l.3,0-4.61,3.42-.67.49-.09-.71,2.31.63,5.55,1.5,6.71,1.81L79,81l1.91.51a7.36,7.36,0,0,1,.92.25h0l-.38.1,4.75-3.79.68-.55C87.34,77.27,87.89,77.81,87.5,78.12Z"/><line x1="51.95" y1="67.03" x2="51.05" y2="66.81"/><path class="cls-3" d="M99.06,87.43l-.21.38a1.44,1.44,0,0,1-.45.5s-.46.28-.54.25l-2.27-7.13c-.1-.3-.31-.92-.89-1.07a1.42,1.42,0,0,0-1.25.48h0l-1.15,1-2.56,2.27L76.65,95.77a6.41,6.41,0,0,1-6.13,1.77l-.36-.08A11.65,11.65,0,0,1,68.64,97c-.18-.06-.34-.13-.51-.2l-32.7-11-1.25-.42c-.3-.15-.61-.3-.91-.47a4,4,0,0,1-1.35-.9,3.45,3.45,0,0,1-.2-.32l-.06-.11s0-.16-.05-.3l0-.25v-.41a.45.45,0,0,0,.1.27c.07.11.12.19.42.3h0c3.66,1.13,9.93,3.33,14.47,4.85l.89.29.43.14.57.19.71.22.44.14.21.07c1.26.38,2.52.78,3.78,1.18q4.24,1.37,8.46,2.83,2.63.9,5.23,1.85a13,13,0,0,0,2,.57,7.19,7.19,0,0,0,6.78-2l3-2.71L83,87.38l.61-.54c.14-.19.14-.36,0-.45C70.48,82.7,55,78.4,41.72,74.68a1.63,1.63,0,0,0,.71-.66l.06-.1,0-.1,0-.09a.14.14,0,0,0,0-.06c.06-.14.09-.27.12-.33h0v0c6.42,1.87,37.22,10.32,41,11.36a2.19,2.19,0,0,0,2.08-.1c.91-.73,4.59-4,6.57-5.52l0,0,1-.87c1.89-.91,3,.42,3.38,1.46Z"/><path class="cls-4" d="M51,62.68C49.13,56.08,48,52.09,42.16,47l-24-21.2c-.2.31-.39.58-.59.84L41.5,47.72c5.59,4.94,6.64,8.6,8.56,15.24.37,1.3.76,2.64,1.22,4.13l1-.29C51.79,65.31,51.4,64,51,62.68Z"/><path class="cls-3" d="M37.94,42h0L31,36.45a.5.5,0,0,0-.67.06l-.7.78a.51.51,0,0,0,0,.69L36,44.15h0v0h0l3.47,2.43a.49.49,0,0,0,.65-.08l.73-.81a.49.49,0,0,0,0-.67L38,42h0Z"/><path class="cls-3" d="M20.1,27.29l-.07.09,0,0-.67.76-.15.17-8.29-3.48h0l-.06-.11c.85.38,2.29-.23,3.42-1.52s1.56-2.77,1.09-3.56l.11,0h0Z"/><path class="cls-4" d="M13.52,22.39c-1.26,1.44-2.9,2-3.68,1.35,0,0,0,0,0,0L1.39,16.29a1,1,0,0,1-.31-.44,3.27,3.27,0,0,1,.63-2.68,5.9,5.9,0,0,1,.55-.71A5.77,5.77,0,0,1,3,11.77a6.45,6.45,0,0,1,.73-.51,2,2,0,0,1,2.24-.14.29.29,0,0,1,.08.07l.06,0,.06,0,.5.45,7.72,6.81h0s0,0,0,0a1.22,1.22,0,0,1,.29.42s0,0,0,0C15,19.84,14.57,21.22,13.52,22.39Z"/><path class="cls-3" d="M54.13,69.55l0-.14h0v0h0l0-.1-3-9.13A.88.88,0,0,0,50,59.57l-.66.18a.87.87,0,0,0-.62,1l2,9.38a.6.6,0,0,0,0,.26h0l.09.2a1.84,1.84,0,0,0,1.95.54c.85-.21,1.41-.81,1.34-1.39h0A1.48,1.48,0,0,0,54.13,69.55Z"/><path class="cls-4" d="M33.85,85.13s0,0,0,0c-.19-.1-.38-.19-.57-.3C33.47,85,33.65,85,33.85,85.13Z"/><path class="cls-3" d="M31.63,83.33v0a1.11,1.11,0,0,0,0-.17A.5.5,0,0,0,31.63,83.33Z"/><line class="cls-2" x1="13.65" y1="17.31" x2="13.69" y2="17.36"/></svg>