<svg id="Слой_1" data-name="Слой 1" xmlns="http://www.w3.org/2000/svg" viewBox="0 0 100 100"><defs><style>.cls-1{fill:#008593;}.cls-2{fill:#0097a7;}.cls-3{fill:#007480;}.cls-4{fill:#6b6b6b;}.cls-5{fill:#005059;}.cls-6{fill:#262626;}.cls-7{fill:none;stroke:#005059;stroke-miterlimit:10;}.cls-8{fill:#706f74;}.cls-9{fill:#fff;}</style></defs><path class="cls-1" d="M63.2,36.4a19.66,19.66,0,0,1,5.54-2.19,23.28,23.28,0,0,1,6.72-.54,20.59,20.59,0,0,1,8.91,2.5c.26.15.54.28.81.41a10.5,10.5,0,0,1,2.75,2.24,3.38,3.38,0,0,1,0,4.7,8.57,8.57,0,0,1-3.19,2.35,21.89,21.89,0,0,1-6,1.7,24.94,24.94,0,0,1-3.12.28,5.44,5.44,0,0,0-.58,0,11.5,11.5,0,0,0-1.66,0c-1-.08-2-.11-3-.23a24.54,24.54,0,0,1-4-.77A16.87,16.87,0,0,1,62.09,45a6,6,0,0,1-2.55-2.74,3.69,3.69,0,0,1,1.22-4.16A12.49,12.49,0,0,1,63.2,36.4Z"/><path class="cls-2" d="M88.68,39.39a6.12,6.12,0,0,1,2.17,4.92,2.16,2.16,0,0,0-.07.51,3.91,3.91,0,0,1-1.5,2.59,14.88,14.88,0,0,1-5.92,3,31.14,31.14,0,0,1-7.17,1.18c-1,.06-2.08.08-3.12,0a28.42,28.42,0,0,1-11.42-2.49,10,10,0,0,1-3.74-2.91,3.61,3.61,0,0,1-.62-1.84,9.29,9.29,0,0,1,.45-2.54,6.65,6.65,0,0,1,1.64-2.39c.22.11.1.25.06.38a4.54,4.54,0,0,0-.19,2.22,4.29,4.29,0,0,0,1.33,2.29A10.11,10.11,0,0,0,64,46.47a23.26,23.26,0,0,0,4.44,1.32c1,.18,2.07.27,3.1.4a23.65,23.65,0,0,0,2.52.14c.86,0,1.73-.06,2.6-.11a26,26,0,0,0,3.85-.54,16.16,16.16,0,0,0,6.43-2.58A4.51,4.51,0,0,0,89,42a4.1,4.1,0,0,0-.38-2.27C88.56,39.64,88.45,39.49,88.68,39.39Z"/><path class="cls-3" d="M57.29,44.43a5.49,5.49,0,0,0,1.06,2.1,10.63,10.63,0,0,0,3.82,2.71,26.38,26.38,0,0,0,7.81,2,33.66,33.66,0,0,0,5.5.23,29.07,29.07,0,0,0,10-2,10.66,10.66,0,0,0,4.35-3,3.83,3.83,0,0,0,.83-1.72c.23.1.08.24.08.37a6.08,6.08,0,0,1-2.12,4.27,14.48,14.48,0,0,1-6,3.31,28.72,28.72,0,0,1-8.7,1.2,27.09,27.09,0,0,1-9.74-1.69A13.21,13.21,0,0,1,59,48.94,6.22,6.22,0,0,1,57.29,44.43Z"/><path class="cls-3" d="M88.68,39.39c0,.11.09.23.13.35a4,4,0,0,1-.09,3.66,8.27,8.27,0,0,1-4,3.12,22.77,22.77,0,0,1-6.64,1.71,33.28,33.28,0,0,1-4.79.25c-1,0-2.09-.14-3.13-.26a21,21,0,0,1-3.28-.59A16.27,16.27,0,0,1,61.05,45c-2-1.51-2.5-3.3-1.73-5.34l.06-.18a8,8,0,0,1,3.41-2.92l.41-.18-.79.58a11.17,11.17,0,0,0-2,1.83,3.47,3.47,0,0,0,.34,4.92A10.27,10.27,0,0,0,64,45.85a19.59,19.59,0,0,0,3.05,1,26.64,26.64,0,0,0,3.5.61c.94.09,1.87.18,2.81.2a12.56,12.56,0,0,0,1.84,0A27.28,27.28,0,0,0,81.11,47a16.76,16.76,0,0,0,4.47-1.7,6.56,6.56,0,0,0,2.7-2.53,3.22,3.22,0,0,0-.41-3.7A9.75,9.75,0,0,0,85.62,37a1.36,1.36,0,0,1-.44-.38,8.49,8.49,0,0,1,3.12,2.35Z"/><path class="cls-4" d="M90.79,45.16c0-.12,0-.25-.08-.37a.84.84,0,0,1,.14-.48A1.89,1.89,0,0,1,90.79,45.16Z"/><path class="cls-2" d="M73.86,43.88a22.07,22.07,0,0,1,6,.64,4.06,4.06,0,0,1,1.43.6c.59.41.61.77,0,1.2a5.5,5.5,0,0,1-2.1.75,21.76,21.76,0,0,1-4.19.45,26.92,26.92,0,0,1-5.46-.37A8.07,8.07,0,0,1,67,46.38c-.79-.44-.8-1,0-1.42a10.15,10.15,0,0,1,3.45-.89A20.53,20.53,0,0,1,73.86,43.88Z"/><path class="cls-3" d="M73.72,44.11a28.12,28.12,0,0,1,5.42.49,5.85,5.85,0,0,1,1.63.58c.59.33.57.8,0,1.11a9.52,9.52,0,0,1-3.24.8,26.47,26.47,0,0,1-3.88.18,20.66,20.66,0,0,1-5.5-.73,2.44,2.44,0,0,1-1-.52.42.42,0,0,1,0-.71,2.9,2.9,0,0,1,1.21-.58,17.87,17.87,0,0,1,3.81-.55C72.8,44.15,73.41,44.09,73.72,44.11Z"/><path class="cls-2" d="M76.17,44.94c0-.17,0-.43.34-.42s.31.26.32.45a.26.26,0,0,1,0,.15c0,.13-.09.3-.32.29s-.27-.16-.3-.31A.78.78,0,0,1,76.17,44.94Z"/><path class="cls-2" d="M73.75,45.69c0-.19,0-.43.32-.44s.34.24.35.43,0,.44-.32.45S73.8,45.86,73.75,45.69Z"/><path class="cls-2" d="M72,46.45c0,.18,0,.44-.34.43s-.31-.26-.32-.45a.17.17,0,0,1,0-.12c.05-.14.07-.33.33-.32s.27.18.31.33A.53.53,0,0,1,72,46.45Z"/><path class="cls-2" d="M72,44.93c0,.19,0,.45-.34.45s-.34-.24-.34-.43,0-.44.33-.45S72,44.75,72,44.93Z"/><path class="cls-2" d="M69.17,45.69c0-.19,0-.45.33-.45s.32.26.33.46a.28.28,0,0,1,0,.18c0,.12-.09.25-.29.25a.3.3,0,0,1-.31-.26A1.13,1.13,0,0,1,69.17,45.69Z"/><path class="cls-2" d="M76.85,46.44a1,1,0,0,1,0,.18c0,.13-.1.28-.3.28s-.28-.15-.31-.29a.37.37,0,0,1,0-.18c0-.17,0-.41.31-.42S76.81,46.26,76.85,46.44Z"/><path class="cls-2" d="M79,45.73c0,.17,0,.43-.33.42s-.31-.25-.32-.44a.25.25,0,0,1,0-.12c0-.15.07-.32.32-.32s.28.17.31.32A.57.57,0,0,1,79,45.73Z"/><path class="cls-2" d="M44.84,57.35c-.4-.46-9.26-6.32-11.17-6.58l-1.21-.17c.12-.12.13-.15.16-.16.32-.19.64-.38,1-.55a15.48,15.48,0,0,0,5.6-4.75A16.82,16.82,0,0,0,42,32.27a14,14,0,0,0-1.3-4.1,1,1,0,0,0-.48-.53,1.49,1.49,0,0,0-1.59.95c-.16.79-.3,1.59-.38,2.38-.1.94-.07.94-1,.94s-1,0-1.37-.93a10.33,10.33,0,0,0-5.18-5.56,11.23,11.23,0,0,0-6.86-.8,10.4,10.4,0,0,0-7.79,6.16c-.18.37-.24.91-.53,1.07s-.84.06-1.28.06H14.2c-.27,0-.37-.12-.39-.39-.05-.68-.12-1.36-.19-2a1.76,1.76,0,0,0-1.49-1.82c-.39-.12-.67,0-.79.39-.08.27-2.48,2.77-1.62,9.47a17.2,17.2,0,0,0,2.1,6.08,15.21,15.21,0,0,0,5.72,5.92c.63.38,1.3.71,2.05,1.12-.25.06-.39.12-.54.14-.47.09-.95.15-1.41.25-1.82.4-9.66,5.46-10.78,6.42a1.47,1.47,0,0,0-.56,1.24,2.35,2.35,0,0,0,.16.7c.72,2,1.48,4,2.2,6a1.31,1.31,0,0,0,1.05.88c.26.06.53.07.79.13h0l2,.06v.59a.34.34,0,0,0,.34.33h4.34a.34.34,0,0,0,.34-.33V66.6c2.84,0,11.72,0,17.61,0v.49a.33.33,0,0,0,.33.33h4.35a.33.33,0,0,0,.33-.33v-.51h.49c.3-.08.62-.07.92-.15.59-.17,1.27-.21,1.54-1,.69-2,1.4-3.9,2.1-5.86a2.6,2.6,0,0,0,.18-1A2,2,0,0,0,44.84,57.35ZM14.4,38.94c.43,0,.84,0,1.26,0,.09,0,.22.15.27.26a10.57,10.57,0,0,0,5,5.6,10.46,10.46,0,0,0,4.69,1.23,10.53,10.53,0,0,0,7.06-2.27,9.92,9.92,0,0,0,3.1-4.06c.32-.78.31-.78,1.14-.78h.71a11.87,11.87,0,0,1-10.85,9.22A12,12,0,0,1,14.4,38.94Z"/><path class="cls-1" d="M45.38,58.62a2.67,2.67,0,0,1-.18,1c-.7,1.95-1.41,3.9-2.1,5.86-.27.74-1,.77-1.55.94a5.56,5.56,0,0,1-1,.1c-.57.05-20.73.12-23.61.11h-.13c-.34,0-6-.17-6.31-.19h0a4.19,4.19,0,0,1-.79-.12,1.33,1.33,0,0,1-1.05-.88c-.72-2-1.48-4-2.21-6a2.59,2.59,0,0,1-.15-.7,12.5,12.5,0,0,0,2.37.2c2.33,0,4.66,0,7,0h.48a1.22,1.22,0,0,1,.59.24,2.26,2.26,0,0,1,.64.92l1.77,3.23a1.4,1.4,0,0,0,1.36.79q5.16,0,10.34,0a1.36,1.36,0,0,0,1.35-.79c.46-.88,1-1.74,1.45-2.6l.44-.76a2.41,2.41,0,0,1,.51-.76,1.07,1.07,0,0,1,.81-.26h.1c1.9,0,3.79,0,5.69,0A31.05,31.05,0,0,0,45.38,58.62Z"/><path class="cls-1" d="M25.9,25.34A9.76,9.76,0,1,1,16.11,35,9.76,9.76,0,0,1,25.9,25.34Z"/><path class="cls-2" d="M25.86,39.91a4.81,4.81,0,1,1,4.81-4.81A4.82,4.82,0,0,1,25.86,39.91Z"/><path class="cls-5" d="M28.06,35.08a2.2,2.2,0,1,1-2.22-2.17A2.2,2.2,0,0,1,28.06,35.08Z"/><path class="cls-5" d="M35.39,58.88a1.07,1.07,0,0,0-.81.26,2.41,2.41,0,0,0-.51.76l-.44.76c-.49.86-1,1.72-1.45,2.6a1.36,1.36,0,0,1-1.35.79q-5.17,0-10.34,0a1.4,1.4,0,0,1-1.36-.79L17.36,60a2.26,2.26,0,0,0-.64-.92,1.22,1.22,0,0,0-.59-.24Z"/><path class="cls-5" d="M66.89,81.59l0-1,1.57-.6a1.25,1.25,0,0,1,.6,1.57l-1.43.65Z"/><path class="cls-2" d="M68,81.16a.08.08,0,0,1-.06-.12A.09.09,0,0,1,68,81.16Z"/><path class="cls-5" d="M66.89,81.59l0-1,1.57-.6a1.25,1.25,0,0,1,.6,1.57l-1.43.65Z"/><path class="cls-1" d="M68,81.16a.08.08,0,0,1-.06-.12A.09.09,0,0,1,68,81.16Z"/><polygon class="cls-5" points="88.48 74.8 88.49 74.77 90.76 74.88 90.75 75 88.48 74.8"/><path class="cls-6" d="M89.62,74.84v0Z"/><polygon class="cls-5" points="88.48 74.8 88.49 74.77 90.76 74.88 90.75 75 88.48 74.8"/><path class="cls-5" d="M89.62,74.84v0Z"/><path class="cls-5" d="M86.7,100a10.35,10.35,0,0,1-2.45-.31,2.32,2.32,0,0,1-1.49-1.07L46.3,96.21a2.82,2.82,0,0,1-1.32.64,10.29,10.29,0,0,1-2.23.24A11.77,11.77,0,0,1,41.1,97a2.33,2.33,0,0,1-1.89-1.23l-.43,0a2.81,2.81,0,0,1-.47-.07,1.74,1.74,0,0,1-1.53-1.88V73.3a2,2,0,0,1,1.3-2.22c.51-.23,13.78-3.64,16.6-4.31a9.06,9.06,0,0,1,1.87-.18c.41,0,41.23,1.43,41.59,1.46,1.82.14,1.84,1.69,1.86,2.44v.21c0,5.72,0,11.41,0,17.11a3.58,3.58,0,0,1-1.1,2.77c-.26.27-4.75,5.15-6.66,7.22a2.63,2.63,0,0,1-1.34.77c-.17,0-.29.05-.41.07l-.19,0A2.09,2.09,0,0,1,89,99.73a9.45,9.45,0,0,1-2.26.27Z"/><path class="cls-3" d="M98.06,69.18c-.15,0-41.08-1.45-41.51-1.45a8.22,8.22,0,0,0-1.61.14c-3.63.87-16.09,4.11-16.4,4.24-.53.24-.62.34-.62,1.19V93.76c0,.52.15.68.66.78a2.66,2.66,0,0,0,.28,0l3.72.25-1,0a10,10,0,0,0-1.45,0c0,.73.47,1,1.13,1.12a10,10,0,0,0,3.49-.11,1.59,1.59,0,0,0,1-.63,1.72,1.72,0,0,0-.39-.1l38.24,2.53a1.07,1.07,0,0,0,.92,1,8.57,8.57,0,0,0,4.18,0c.41-.09.55-.44.8-.83a.82.82,0,0,1,.11-.1,3.72,3.72,0,0,1,1-.22,1.52,1.52,0,0,0,.79-.44c1.77-1.93,6.45-7,6.68-7.24a2.5,2.5,0,0,0,.77-2c0-5.69,0-11.39,0-17.08C98.84,69.82,98.91,69.25,98.06,69.18ZM68,81.16a.08.08,0,0,1-.06-.12A.09.09,0,0,1,68,81.16ZM44.78,95c-.2,0-.41,0-.61,0l-1-.08Z"/><path class="cls-5" d="M66.89,81.59l0-1,1.57-.6a1.25,1.25,0,0,1,.6,1.57l-1.43.65Z"/><path class="cls-7" d="M68,81.16a.08.08,0,0,1-.06-.12A.09.09,0,0,1,68,81.16Z"/><path class="cls-5" d="M66.89,81.59l0-1,1.57-.6a1.25,1.25,0,0,1,.6,1.57l-1.43.65Z"/><path class="cls-6" d="M68,81.16a.08.08,0,0,1-.06-.12A.09.09,0,0,1,68,81.16Z"/><path class="cls-2" d="M87.2,97.36a.36.36,0,0,1-.34.38c-.23,0-3.22-.19-3.25-.21l-44.75-3c-.06-.07,0-21,0-21.14,0-.46.29-.76,1.1-.71.14,0,45.79,1.54,46.31,1.56a.81.81,0,0,1,.81.88C87.15,75.93,87.19,96.46,87.2,97.36Z"/><path class="cls-8" d="M45.76,95.11a4.1,4.1,0,0,1-.86,0c-.8-.07-1.6-.09-2.41-.17A12.54,12.54,0,0,0,41,94.83a3.11,3.11,0,0,1-.86-.1,11.7,11.7,0,0,1,1.45,0c.87,0,1.73.1,2.6.18A6.1,6.1,0,0,1,45.76,95.11Z"/><path class="cls-1" d="M82.6,83.55v3.86c0,.73-.32,1-1,1-.51-.06-1-.05-1.52-.09-1.1-.08-2.21-.08-3.32-.15-1.56-.11-3.12-.17-4.68-.26l-3.4-.18c-1.51,0-3-.19-4.52-.26-1,0-2-.13-3-.16a14.89,14.89,0,0,0-1.64-.06c-.52,0-1,0-1.54-.06-1.06-.07-2.12-.16-3.17-.24l-1.37-.06c-1.23-.07-2.46-.09-3.69-.15l-5.39-.3c-.43,0-.69-.38-.69-.91v-5.2c0-.73,0-1.45,0-2.18s.32-1,1-.9l.37,0c1.5,0,3,.07,4.5.14l3.19.13,3.26.12c1.58.05,3.16.14,4.74.19s3.06.12,4.59.18l4.84.19c1.67.06,3.33.13,5,.18l3.35.13c1,0,2.06.09,3.1.11a1,1,0,0,1,1,1.08v3.86Z"/><path class="cls-6" d="M89.62,74.84v0Z"/><path class="cls-6" d="M90.63,74.57v22.9a.51.51,0,0,1-.1-.41v-22a.49.49,0,0,0-.15-.38A2,2,0,0,0,90.63,74.57Z"/><path class="cls-2" d="M90.63,74.57v22.9a3.79,3.79,0,0,0-1,.22v-18c0-1.58,0-3.15,0-4.72h0v0h.13a1.74,1.74,0,0,0,.63-.17A2,2,0,0,0,90.63,74.57Z"/><path class="cls-3" d="M45.76,95.11a1.58,1.58,0,0,1-1,.63,10,10,0,0,1-3.49.11c-.65-.1-1.1-.38-1.12-1.12a11.7,11.7,0,0,1,1.45,0c.87,0,1.73.1,2.6.18A6.1,6.1,0,0,1,45.76,95.11Z"/><path class="cls-5" d="M89.62,74.89v0Z"/><path class="cls-5" d="M89.62,74.84v0Z"/><path class="cls-3" d="M98.86,70.73c0-.91,0-1.48-.8-1.55-.15,0-41.09-1.45-41.52-1.45a7.37,7.37,0,0,0-1.59.15c-3.64.86-16.1,4.09-16.41,4.23-.53.24-.62.34-.62,1.18V93.75c0,.52.14.69.66.79l.28,0c-.06-.07,0-21,0-21.14,0-.46.29-.76,1.1-.71.14,0,45.79,1.54,46.31,1.56a.81.81,0,0,1,.81.88c0,.76.07,21.29.08,22.19a.36.36,0,0,1-.34.38c-.23,0-3.22-.19-3.25-.21a1,1,0,0,0,.92,1,8.45,8.45,0,0,0,4.18,0c.41-.1.55-.45.8-.83a.82.82,0,0,1,.11-.1v-18c0-1.58,0-3.15,0-4.72h0v0h.13a1.74,1.74,0,0,0,.63-.17,2,2,0,0,0,.25-.14v22.9a1.49,1.49,0,0,0,.78-.44c1.77-1.93,6.45-7,6.68-7.24a2.54,2.54,0,0,0,.78-2C98.84,82.12,98.85,76.42,98.86,70.73Zm-9.24,4.15v0h0Z"/><path class="cls-7" d="M82.6,83.55v3.86c0,.73-.32,1-1,1-.51-.06-1-.05-1.52-.09-1.1-.08-2.21-.08-3.32-.15-1.56-.11-3.12-.17-4.68-.26l-3.4-.18c-1.51,0-3-.19-4.52-.26-1,0-2-.13-3-.16a14.89,14.89,0,0,0-1.64-.06c-.52,0-1,0-1.54-.06-1.06-.07-2.12-.16-3.17-.24l-1.37-.06c-1.23-.07-2.46-.09-3.69-.15l-5.39-.3c-.43,0-.69-.38-.69-.91v-5.2c0-.73,0-1.45,0-2.18s.32-1,1-.9l.37,0c1.5,0,3,.07,4.5.14l3.19.13,3.26.12c1.58.05,3.16.14,4.74.19s3.06.12,4.59.18l4.84.19c1.67.06,3.33.13,5,.18l3.35.13c1,0,2.06.09,3.1.11a1,1,0,0,1,1,1.08v3.86Z"/><path class="cls-9" d="M45.84,79.75a1.63,1.63,0,0,1,0-.79.62.62,0,0,1,.71-.52l3.56.17c.56,0,1.11,0,1.67,0s1.18.07,1.77.08c1.24,0,2.48.12,3.72.14,1,0,2,.07,3,.12,1.53.06,3.06.11,4.59.19,1,0,1.9.09,2.85.12,1.73,0,3.45.11,5.18.19,1,0,2,.1,3,.12s2,.08,3,.13a.82.82,0,0,1,.85.89c0,1.84,0,3.68,0,5.51,0,.66-.27.88-.94.81s-1.09,0-1.64-.07c-1-.08-2.09-.08-3.13-.15l-3.5-.18-4-.19c-1.68-.09-3.36-.19-5.05-.25a4.7,4.7,0,0,1-.9-.15c.64,0,1.28,0,1.91,0s1.08,0,1.61.09c1.14.09,2.28.09,3.41.15,1.58.09,3.16.19,4.74.26L75,86.6c1.29.05,2.58.15,3.87.23a.56.56,0,0,0,.66-.61c0-1.53,0-3.07,0-4.6a9.73,9.73,0,0,0,0-1.08.6.6,0,0,0-.62-.63l-2.42-.07c-1.51-.06-3-.1-4.53-.2-.75,0-1.5,0-2.26-.09s-1.74,0-2.6-.09c-1.62-.07-3.23-.14-4.84-.19l-2.88-.12L54.78,79l-3-.12c-1.56,0-3.12-.12-4.68-.19-.2,0-.39,0-.59,0a.55.55,0,0,0-.63.59A1.46,1.46,0,0,1,45.84,79.75Z"/><path class="cls-9" d="M59.64,82.31a32.64,32.64,0,0,1,3.71.07l1.46.08c.41,0,.2.33.24.51s-.07.26-.27.26c-1.64,0-3.29-.15-4.93-.26-.18,0-.26-.1-.24-.28S59.63,82.44,59.64,82.31Z"/><path class="cls-9" d="M52.52,81.89l3.87.2c.36,0,.26.27.28.47s-.07.29-.29.28c-1.14,0-2.29-.08-3.43-.18-.42,0-.84,0-1.27-.06s-.22-.24-.25-.42.07-.29.28-.28h.81Z"/><path class="cls-9" d="M59.64,84.62a2.55,2.55,0,0,1,.82,0l4.12.18c.12,0,.29,0,.3.14s-.19.15-.31.15c-1.56,0-3.11-.14-4.67-.26C59.8,84.78,59.69,84.79,59.64,84.62Z"/><path class="cls-9" d="M51.58,84.21c.5,0,1,0,1.49,0,.81,0,1.62.07,2.42.11l.87,0c.07,0,.18,0,.18.11s-.08.14-.16.16a.39.39,0,0,1-.15,0c-1.25-.1-2.5-.14-3.74-.21a1.8,1.8,0,0,1-.92-.14Z"/><path class="cls-9" d="M51,81.68v2.19c-.16,0-.17-.05-.17-.11,0-.6,0-1.2-.07-1.8C50.74,81.78,50.77,81.64,51,81.68Z"/><path class="cls-9" d="M59.13,83.61A4.33,4.33,0,0,1,59,82.27c0-.09,0-.18.12-.19s.15.07.16.16A5.33,5.33,0,0,1,59.13,83.61Z"/><path class="cls-6" d="M67.92,81a.1.1,0,0,1,.06.13C67.92,81.14,67.91,81.09,67.92,81Z"/></svg>