<svg id="Слой_1" data-name="Слой 1" xmlns="http://www.w3.org/2000/svg" viewBox="0 0 100 100"><defs><style>.cls-1{fill:#0097a7;}.cls-2{fill:#008593;}.cls-3{fill:#007480;}.cls-4{fill:#fff;}.cls-5{fill:#005059;}</style></defs><path class="cls-1" d="M41.17,43.63c-.28-.31-6.43-4.38-7.75-4.56L32.59,39l.1-.12.68-.38a10.71,10.71,0,0,0,3.88-3.29,11.67,11.67,0,0,0,2-8.92,10.11,10.11,0,0,0-.9-2.84.73.73,0,0,0-.33-.36,1,1,0,0,0-1.11.65c-.11.55-.2,1.1-.26,1.66s0,.65-.71.65-.67,0-.95-.65a7.12,7.12,0,0,0-3.59-3.85A7.76,7.76,0,0,0,26.62,21a7.2,7.2,0,0,0-5.4,4.27c-.12.26-.17.63-.36.75s-.59,0-.89,0h0c-.19,0-.27-.09-.28-.28,0-.47-.08-.94-.13-1.41a1.23,1.23,0,0,0-1-1.26c-.28-.08-.46,0-.55.27s-1.72,1.92-1.12,6.56a12,12,0,0,0,1.45,4.21,10.6,10.6,0,0,0,4,4.11c.44.26.9.49,1.42.77l-.38.1c-.32.06-.65.1-1,.17-1.26.28-6.69,3.79-7.46,4.46a1,1,0,0,0-.39.85,1.67,1.67,0,0,0,.11.48c.5,1.4,1,2.78,1.53,4.18a.9.9,0,0,0,.72.61c.18,0,.37.05.55.09l1.23,0h.16v.41a.24.24,0,0,0,.23.23h3a.24.24,0,0,0,.23-.23V50h12.2v.34a.23.23,0,0,0,.23.23h3a.23.23,0,0,0,.23-.23V50h.35a2.8,2.8,0,0,1,.28-.06,2,2,0,0,0,.35-.05c.41-.12.88-.14,1.07-.65.48-1.36,1-2.71,1.46-4.06a2.11,2.11,0,0,0,.12-.67A1.4,1.4,0,0,0,41.17,43.63ZM20.07,30.88c.3,0,.59,0,.87,0,.07,0,.16.1.19.18A7.31,7.31,0,0,0,24.61,35a7.17,7.17,0,0,0,3.24.85,7.3,7.3,0,0,0,4.9-1.57,6.85,6.85,0,0,0,2.14-2.82c.22-.54.22-.54.79-.54h.5a8.21,8.21,0,0,1-7.53,6.4A8.32,8.32,0,0,1,20.07,30.88Z"/><path class="cls-2" d="M41.54,44.52a2.06,2.06,0,0,1-.12.67c-.49,1.35-1,2.71-1.46,4.06-.19.51-.66.54-1.07.65a3.33,3.33,0,0,1-.7.07c-.39,0-14.36.08-16.36.08h-.09l-4.37-.13h0a2.53,2.53,0,0,1-.55-.09.88.88,0,0,1-.72-.61c-.51-1.39-1-2.78-1.53-4.17a1.81,1.81,0,0,1-.11-.49,8.2,8.2,0,0,0,1.64.14c1.61,0,3.23,0,4.84,0h.33a1,1,0,0,1,.41.17,1.64,1.64,0,0,1,.44.63l1.23,2.24a1,1,0,0,0,.94.55h7.17a.94.94,0,0,0,.93-.55c.32-.6.66-1.2,1-1.8l.3-.53a1.63,1.63,0,0,1,.36-.52.71.71,0,0,1,.56-.18h.07c1.31,0,2.62,0,3.94,0A20.29,20.29,0,0,0,41.54,44.52Z"/><path class="cls-2" d="M28,21.46a6.76,6.76,0,1,1-6.78,6.69A6.76,6.76,0,0,1,28,21.46Z"/><path class="cls-1" d="M28,31.55a3.33,3.33,0,1,1,3.33-3.33A3.34,3.34,0,0,1,28,31.55Z"/><path class="cls-3" d="M29.54,28.21A1.52,1.52,0,1,1,28,26.7,1.53,1.53,0,0,1,29.54,28.21Z"/><path class="cls-1" d="M34.62,44.7a.71.71,0,0,0-.56.18,1.63,1.63,0,0,0-.36.52l-.3.53c-.35.6-.69,1.2-1,1.8a.94.94,0,0,1-.93.55H24.29a1,1,0,0,1-.94-.55l-1.23-2.24a1.64,1.64,0,0,0-.44-.63,1,1,0,0,0-.41-.17Z"/><path class="cls-1" d="M69.65,71.14c-10.34,0-17.28-8.59-18.31-14.79l-.21-1.25h2.39c.28,0,.55,0,.82,0a1.73,1.73,0,0,1,1.3,1,15.08,15.08,0,0,0,13.65,9.66h.58a14.68,14.68,0,0,0,9.35-3.18,13.93,13.93,0,0,0,4.32-5.69c.64-1.57,1-1.83,2.7-1.83h2.37l-.26,1.28A18.84,18.84,0,0,1,71.07,71.08C70.59,71.12,70.11,71.14,69.65,71.14Z"/><path class="cls-1" d="M87.31,56.16A17.81,17.81,0,0,1,71,70c-10.88.8-17.66-8.22-18.6-13.85.64,0,1.26,0,1.87,0,.15,0,.34.24.42.4a16.36,16.36,0,0,0,25.19,6.87,14.93,14.93,0,0,0,4.65-6.12c.48-1.17.48-1.17,1.72-1.17Z"/><path class="cls-4" d="M69.65,71.14c-10.34,0-17.28-8.59-18.31-14.79l-.21-1.25h2.39c.28,0,.55,0,.82,0a1.73,1.73,0,0,1,1.3,1,15.08,15.08,0,0,0,13.65,9.66h.58a14.68,14.68,0,0,0,9.35-3.18,13.93,13.93,0,0,0,4.32-5.69c.64-1.57,1-1.83,2.7-1.83h2.37l-.26,1.28A18.84,18.84,0,0,1,71.07,71.08C70.59,71.12,70.11,71.14,69.65,71.14Z"/><path class="cls-4" d="M87.31,56.16A17.81,17.81,0,0,1,71,70c-10.88.8-17.66-8.22-18.6-13.85.64,0,1.26,0,1.87,0,.15,0,.34.24.42.4a16.36,16.36,0,0,0,25.19,6.87,14.93,14.93,0,0,0,4.65-6.12c.48-1.17.48-1.17,1.72-1.17Z"/><path class="cls-5" d="M84,100a1.57,1.57,0,0,1-1.53-1.23c-7.14,0-16.68,0-22.25,0H58.1a1.56,1.56,0,0,1-1.52,1.2H50a1.56,1.56,0,0,1-1.55-1.42l-1.23,0-.81,0h-.07l-.08,0-.49-.07c-.24,0-.47-.06-.7-.11a3,3,0,0,1-2.35-2c-.55-1.51-1.1-3-1.66-4.52s-1.11-3-1.66-4.54a4.49,4.49,0,0,1-.3-1.33,3.26,3.26,0,0,1,1.22-2.73C42,81.74,54,74,57,73.29h0l-.52-.3a24.12,24.12,0,0,1-9-9.31,26.65,26.65,0,0,1-3.28-9.51c-.79-6.11,0-11,2.41-14.64l.09-.14a1.79,1.79,0,0,1,1.73-1.31,2.55,2.55,0,0,1,.75.12,3.69,3.69,0,0,1,3,3.65V42c.09.86.18,1.71.25,2.57l.35,0a4,4,0,0,0,.49,0h.11a3.29,3.29,0,0,0,.16-.44c.09-.25.18-.51.28-.72,2.65-5.5,6.84-8.81,12.47-9.85A19.82,19.82,0,0,1,70,33.26a17.45,17.45,0,0,1,7.39,1.62,16.63,16.63,0,0,1,8.31,8.89l0,.1a7.12,7.12,0,0,0,.3.65c.16,0,.48,0,.75,0h.42l0-.45c.11-1.07.29-2.21.59-3.69a3.38,3.38,0,0,1,3.09-2.33,2.47,2.47,0,0,1,.67.1,2.58,2.58,0,0,1,1.34,1.32A22.47,22.47,0,0,1,95,46,26.41,26.41,0,0,1,90.5,66.09a23.84,23.84,0,0,1-8,7.07c4.3,1.58,15.74,9.13,16.48,10A4,4,0,0,1,100,85.71a5.21,5.21,0,0,1-.33,1.85l-1.12,3.1c-.68,1.9-1.37,3.8-2,5.7a3.15,3.15,0,0,1-2.62,2l-.41.11-.48.1-.36,0-.18,0a3.43,3.43,0,0,0-.34.06A1.57,1.57,0,0,1,90.57,100ZM53.73,57.23C55.16,61.91,60.57,69,69.65,69c.41,0,.83,0,1.26,0A16.13,16.13,0,0,0,82,63.86a16.67,16.67,0,0,0,4-6.63h-.23c-.06.13-.14.33-.21.51a16.23,16.23,0,0,1-5,6.55,17,17,0,0,1-10.66,3.63h-.65A17.22,17.22,0,0,1,53.79,57.23Z"/><path class="cls-5" d="M98.12,83.83c-.59-.68-13.92-9.5-16.79-9.89-.56-.07-1.12-.16-1.81-.24a1.67,1.67,0,0,1,.24-.26c.49-.28,1-.56,1.46-.82a23.31,23.31,0,0,0,8.41-7.14,25.25,25.25,0,0,0,4.28-19.35A21.58,21.58,0,0,0,92,40a1.57,1.57,0,0,0-.73-.79,2.21,2.21,0,0,0-2.38,1.43,33.54,33.54,0,0,0-.58,3.59c-.15,1.4-.11,1.4-1.53,1.4s-1.46,0-2.07-1.4a15.53,15.53,0,0,0-7.78-8.36,16.91,16.91,0,0,0-10.31-1.2c-5.54,1-9.3,4.28-11.7,9.26-.26.55-.37,1.36-.8,1.62s-1.27.07-1.93.08h-.06c-.42,0-.58-.18-.6-.59-.07-1-.18-2-.28-3.06A2.66,2.66,0,0,0,49,39.21c-.59-.18-1-.05-1.18.59-.11.4-3.73,4.16-2.43,14.22a25.76,25.76,0,0,0,3.15,9.14,23.08,23.08,0,0,0,8.6,8.91c1,.57,1.95,1.06,3.08,1.67-.38.1-.59.18-.8.22-.72.13-1.43.22-2.13.37-2.74.61-14.51,8.21-16.2,9.66a2.18,2.18,0,0,0-.85,1.85,3.35,3.35,0,0,0,.25,1c1.08,3,2.22,6,3.31,9.06a2,2,0,0,0,1.58,1.33c.39.09.79.1,1.19.18l2.28.08h.73v.88a.5.5,0,0,0,.5.5h6.54a.5.5,0,0,0,.5-.5v-.7h3.18c5.84,0,16.06,0,23.28,0v.73a.5.5,0,0,0,.5.5h6.53a.5.5,0,0,0,.5-.5v-.76h.75a5.55,5.55,0,0,1,.71-.13l.3,0,.36-.08c.9-.25,1.92-.3,2.31-1.42,1-2.94,2.11-5.87,3.17-8.81a4,4,0,0,0,.26-1.45A2.87,2.87,0,0,0,98.12,83.83ZM52.39,56.17c.64,0,1.26,0,1.87,0,.15,0,.34.24.42.4a16.36,16.36,0,0,0,25.19,6.87,14.93,14.93,0,0,0,4.65-6.12c.48-1.17.48-1.17,1.72-1.17h1.07A17.81,17.81,0,0,1,71,70C60.11,70.82,53.33,61.8,52.39,56.17Z"/><path class="cls-2" d="M46.53,97.45a5.69,5.69,0,0,1-1.19-.18C45.73,97.36,46.13,97.37,46.53,97.45Z"/><path class="cls-1" d="M98.13,83.82c-.6-.68-13.93-9.49-16.8-9.88l-1.81-.25c.18-.18.21-.23.24-.24.49-.29,1-.58,1.46-.83a23.31,23.31,0,0,0,8.41-7.14A25.23,25.23,0,0,0,93.9,46.14,21.24,21.24,0,0,0,92,40a1.63,1.63,0,0,0-.71-.79,2.25,2.25,0,0,0-2.4,1.43c-.24,1.19-.45,2.38-.57,3.58-.15,1.41-.1,1.41-1.53,1.41s-1.46,0-2.06-1.4a15.46,15.46,0,0,0-7.79-8.35,16.77,16.77,0,0,0-10.31-1.2c-5.54,1-9.31,4.27-11.7,9.25-.27.56-.37,1.36-.8,1.61s-1.27.08-1.93.09h-.07c-.4,0-.56-.18-.59-.59-.07-1-.17-2-.28-3.06A2.66,2.66,0,0,0,49,39.21c-.58-.18-1-.06-1.18.59-.12.39-3.73,4.16-2.44,14.22a26.16,26.16,0,0,0,3.15,9.14,23.18,23.18,0,0,0,8.61,8.91c.95.57,1.95,1.06,3.08,1.67l-.81.22c-.7.13-1.43.22-2.12.37-2.74.61-14.52,8.21-16.19,9.66a2.12,2.12,0,0,0-.85,1.85,3.75,3.75,0,0,0,.23,1c1.09,3,2.23,6,3.32,9a2,2,0,0,0,1.58,1.33c.39.09.8.1,1.19.18l1,0,2,.06v.88a.5.5,0,0,0,.51.5h6.53a.5.5,0,0,0,.5-.5v-.69l26.47,0v.73a.49.49,0,0,0,.49.5h6.54a.49.49,0,0,0,.49-.5v-.76h.75c.45-.11.93-.11,1.37-.22.9-.26,1.92-.31,2.32-1.42,1-2.94,2.11-5.88,3.17-8.82a3.94,3.94,0,0,0,.25-1.44A3,3,0,0,0,98.13,83.82ZM52.38,56.16c.64,0,1.27,0,1.89,0a.73.73,0,0,1,.41.4,16.35,16.35,0,0,0,25.19,6.86,14.83,14.83,0,0,0,4.65-6.11c.48-1.17.48-1.18,1.72-1.18H87.3A17.78,17.78,0,0,1,71,70C60.11,70.82,53.33,61.8,52.38,56.16Z"/><path class="cls-3" d="M98.93,85.74a3.89,3.89,0,0,1-.26,1.46c-1,2.93-2.12,5.87-3.16,8.81-.4,1.11-1.42,1.16-2.32,1.41a8.4,8.4,0,0,1-1.51.15c-.85.07-31.15.18-35.47.16H56l-9.48-.27h0a6.6,6.6,0,0,1-1.18-.19,2,2,0,0,1-1.58-1.33c-1.09-3-2.23-6-3.32-9a3.43,3.43,0,0,1-.23-1,19.22,19.22,0,0,0,3.56.29c3.5,0,7,0,10.5,0a5.58,5.58,0,0,1,.71,0,1.77,1.77,0,0,1,.89.36,3.43,3.43,0,0,1,1,1.38c.2.37,2,3.59,2.67,4.85a2.07,2.07,0,0,0,2,1.19q7.77,0,15.55,0a2,2,0,0,0,2-1.19c.7-1.31,1.44-2.61,2.18-3.9l.66-1.15a3.79,3.79,0,0,1,.77-1.13,1.57,1.57,0,0,1,1.22-.4h.15c2.85,0,5.7.08,8.54,0A44.27,44.27,0,0,0,98.93,85.74Z"/><path class="cls-2" d="M69.66,35.62A14.78,14.78,0,1,1,54.84,50.24,14.78,14.78,0,0,1,69.66,35.62Z"/><path class="cls-1" d="M69.61,57.62a7.23,7.23,0,1,1,7.23-7.22A7.24,7.24,0,0,1,69.61,57.62Z"/><path class="cls-5" d="M72.91,50.36a3.3,3.3,0,1,1-3.33-3.26A3.31,3.31,0,0,1,72.91,50.36Z"/><path class="cls-5" d="M98.94,86.19V85.3l-58.73.1v.88l15.28,0a2.31,2.31,0,0,1,.39.22,3.43,3.43,0,0,1,1,1.38c.2.37,2,3.59,2.67,4.85a2.07,2.07,0,0,0,2,1.19q7.77,0,15.55,0a2,2,0,0,0,2-1.19c.7-1.31,1.44-2.61,2.18-3.9l.66-1.15a3.79,3.79,0,0,1,.77-1.13,1.59,1.59,0,0,1,.55-.32Z"/></svg>